<svg id="visual" viewBox="0 0 900 600" width="900" height="600" xmlns="http://www.w3.org/2000/svg" xmlns:xlink="http://www.w3.org/1999/xlink" version="1.1"><rect x="0" y="0" width="900" height="600" fill="#ffffff"></rect><path d="M0 370L21.5 373C43 376 86 382 128.8 386.2C171.7 390.3 214.3 392.7 257.2 402.8C300 413 343 431 385.8 439.2C428.7 447.3 471.3 445.7 514.2 437.7C557 429.7 600 415.3 642.8 404.3C685.7 393.3 728.3 385.7 771.2 384.3C814 383 857 388 878.5 390.5L900 393L900 601L878.5 601C857 601 814 601 771.2 601C728.3 601 685.7 601 642.8 601C600 601 557 601 514.2 601C471.3 601 428.7 601 385.8 601C343 601 300 601 257.2 601C214.3 601 171.7 601 128.8 601C86 601 43 601 21.5 601L0 601Z" fill="#4b70f5"></path><path d="M0 398L21.5 405.3C43 412.7 86 427.3 128.8 433.8C171.7 440.3 214.3 438.7 257.2 441.3C300 444 343 451 385.8 453.5C428.7 456 471.3 454 514.2 454.2C557 454.3 600 456.7 642.8 452.8C685.7 449 728.3 439 771.2 431.3C814 423.7 857 418.3 878.5 415.7L900 413L900 601L878.5 601C857 601 814 601 771.2 601C728.3 601 685.7 601 642.8 601C600 601 557 601 514.2 601C471.3 601 428.7 601 385.8 601C343 601 300 601 257.2 601C214.3 601 171.7 601 128.8 601C86 601 43 601 21.5 601L0 601Z" fill="#4f5ed4"></path><path d="M0 486L21.5 480.7C43 475.3 86 464.7 128.8 463.8C171.7 463 214.3 472 257.2 472.3C300 472.7 343 464.3 385.8 458.3C428.7 452.3 471.3 448.7 514.2 448.8C557 449 600 453 642.8 452.8C685.7 452.7 728.3 448.3 771.2 445.3C814 442.3 857 440.7 878.5 439.8L900 439L900 601L878.5 601C857 601 814 601 771.2 601C728.3 601 685.7 601 642.8 601C600 601 557 601 514.2 601C471.3 601 428.7 601 385.8 601C343 601 300 601 257.2 601C214.3 601 171.7 601 128.8 601C86 601 43 601 21.5 601L0 601Z" fill="#4e4db5"></path><path d="M0 524L21.5 517.7C43 511.3 86 498.7 128.8 492.5C171.7 486.3 214.3 486.7 257.2 490.5C300 494.3 343 501.7 385.8 507.5C428.7 513.3 471.3 517.7 514.2 514.8C557 512 600 502 642.8 500.3C685.7 498.7 728.3 505.3 771.2 504.2C814 503 857 494 878.5 489.5L900 485L900 601L878.5 601C857 601 814 601 771.2 601C728.3 601 685.7 601 642.8 601C600 601 557 601 514.2 601C471.3 601 428.7 601 385.8 601C343 601 300 601 257.2 601C214.3 601 171.7 601 128.8 601C86 601 43 601 21.5 601L0 601Z" fill="#483d97"></path><path d="M0 555L21.5 556.3C43 557.7 86 560.3 128.8 563.3C171.7 566.3 214.3 569.7 257.2 563.3C300 557 343 541 385.8 539.3C428.7 537.7 471.3 550.3 514.2 558.3C557 566.3 600 569.7 642.8 564.8C685.7 560 728.3 547 771.2 544.8C814 542.7 857 551.3 878.5 555.7L900 560L900 601L878.5 601C857 601 814 601 771.2 601C728.3 601 685.7 601 642.8 601C600 601 557 601 514.2 601C471.3 601 428.7 601 385.8 601C343 601 300 601 257.2 601C214.3 601 171.7 601 128.8 601C86 601 43 601 21.5 601L0 601Z" fill="#402e7a"></path></svg>