<svg id="visual" viewBox="0 0 900 600" width="900" height="600" xmlns="http://www.w3.org/2000/svg" xmlns:xlink="http://www.w3.org/1999/xlink" version="1.1"><rect x="0" y="0" width="900" height="600" fill="#0f305b"></rect><path d="M0 429L21.5 422.7C43 416.3 86 403.7 128.8 391.5C171.7 379.3 214.3 367.7 257.2 374C300 380.3 343 404.7 385.8 407C428.7 409.3 471.3 389.7 514.2 389.2C557 388.7 600 407.3 642.8 417.8C685.7 428.3 728.3 430.7 771.2 427.8C814 425 857 417 878.5 413L900 409L900 601L878.5 601C857 601 814 601 771.2 601C728.3 601 685.7 601 642.8 601C600 601 557 601 514.2 601C471.3 601 428.7 601 385.8 601C343 601 300 601 257.2 601C214.3 601 171.7 601 128.8 601C86 601 43 601 21.5 601L0 601Z" fill="#4b70f5"></path><path d="M0 404L21.5 404.2C43 404.3 86 404.7 128.8 415.5C171.7 426.3 214.3 447.7 257.2 449C300 450.3 343 431.7 385.8 419.2C428.7 406.7 471.3 400.3 514.2 407.7C557 415 600 436 642.8 439.8C685.7 443.7 728.3 430.3 771.2 422.7C814 415 857 413 878.5 412L900 411L900 601L878.5 601C857 601 814 601 771.2 601C728.3 601 685.7 601 642.8 601C600 601 557 601 514.2 601C471.3 601 428.7 601 385.8 601C343 601 300 601 257.2 601C214.3 601 171.7 601 128.8 601C86 601 43 601 21.5 601L0 601Z" fill="#3061cd"></path><path d="M0 492L21.5 485.7C43 479.3 86 466.7 128.8 459.5C171.7 452.3 214.3 450.7 257.2 450.7C300 450.7 343 452.3 385.8 454.3C428.7 456.3 471.3 458.7 514.2 463.3C557 468 600 475 642.8 474.8C685.7 474.7 728.3 467.3 771.2 470.2C814 473 857 486 878.5 492.5L900 499L900 601L878.5 601C857 601 814 601 771.2 601C728.3 601 685.7 601 642.8 601C600 601 557 601 514.2 601C471.3 601 428.7 601 385.8 601C343 601 300 601 257.2 601C214.3 601 171.7 601 128.8 601C86 601 43 601 21.5 601L0 601Z" fill="#1c51a6"></path><path d="M0 516L21.5 511.7C43 507.3 86 498.7 128.8 502.3C171.7 506 214.3 522 257.2 522.3C300 522.7 343 507.3 385.8 503.8C428.7 500.3 471.3 508.7 514.2 509.5C557 510.3 600 503.7 642.8 503C685.7 502.3 728.3 507.7 771.2 513.3C814 519 857 525 878.5 528L900 531L900 601L878.5 601C857 601 814 601 771.2 601C728.3 601 685.7 601 642.8 601C600 601 557 601 514.2 601C471.3 601 428.7 601 385.8 601C343 601 300 601 257.2 601C214.3 601 171.7 601 128.8 601C86 601 43 601 21.5 601L0 601Z" fill="#114180"></path><path d="M0 544L21.5 544.7C43 545.3 86 546.7 128.8 546.3C171.7 546 214.3 544 257.2 547.5C300 551 343 560 385.8 558.3C428.7 556.7 471.3 544.3 514.2 541.5C557 538.7 600 545.3 642.8 545.3C685.7 545.3 728.3 538.7 771.2 538.7C814 538.7 857 545.3 878.5 548.7L900 552L900 601L878.5 601C857 601 814 601 771.2 601C728.3 601 685.7 601 642.8 601C600 601 557 601 514.2 601C471.3 601 428.7 601 385.8 601C343 601 300 601 257.2 601C214.3 601 171.7 601 128.8 601C86 601 43 601 21.5 601L0 601Z" fill="#0f305b"></path></svg>